<svg xmlns="http://www.w3.org/2000/svg" viewBox="0 0 272.21102 344.37543"><defs><style>.cls-1{fill:#187fb9;}.cls-10,.cls-2,.cls-5,.cls-7,.cls-8{fill:none;}.cls-2,.cls-5,.cls-7,.cls-8{stroke:#fff;}.cls-2,.cls-8{stroke-miterlimit:10;}.cls-2{stroke-width:1.5px;}.cls-3{opacity:0.99;}.cls-4{fill:#004385;}.cls-5,.cls-7,.cls-8{stroke-width:3px;}.cls-6{opacity:0.95;}.cls-7{stroke-linecap:square;stroke-miterlimit:3.25;}.cls-9{fill:#004c8d;}</style></defs><g id="Negative_Circle" data-name="Negative Circle"><path class="cls-1" d="M76.64184,14.77766l1.86047.36468.44263.08478.43933.08472.87756.17358,1.75836.33893,3.49695.683,6.90808,1.35981L105.62908,20.592l.73993.16119.73108.157,1.45343.31927,2.85614.63343,5.47888,1.27508.33142.07752.327.08056.65838.15711,1.29377.31927,2.52917.63751,4.77417,1.271.55933.15393.55053.1571,1.08783.311,2.10749.62518,3.91864,1.24408.2323.08057.2279.07647.46027.15711.88965.311,1.71216.62207,3.127,1.2472.19818.08471.58026.25421.74872.33893,1.41486.67371.33581.16943.32593.16944.63312.33892,1.18255.6789.142.08063.13764.08471.27081.16944.52081.33892.12885.08478.12.08472.24555.16943.58026.42365.10791.08471.21911.16639.41291.33892.74432.67786.08148.07648.077.08056.15527.15809.28846.31414.06829.08057.06934.07751.13324.157.24444.31933.06055.07642.05615.08063.11121.157.20264.31519.0473.07647.04736.08057.09027.15808.163.31415.03961.08056.03857.07752.06824.157.03082.08063.03418.07648.06055.16223.02533.07642.02533.08062.05176.15705.022.07647.02533.08161.03857.1571.01758.07648.03418.16113.01758.07752.01324.08062.01209.07642.01324.08063.00879.07647.00879.08057.00775.07751.00879.08057.0044.07648.00879.16119.00439.07752v.08062l.00446.08472-.00446.08472v.08471l-.00439.08472-.0044.08887-.00439.08472-.00879.08477-.0044.08472-.01214.08472-.00879.08886-.05176.33893-.03412.17359-.022.08471-.01654.08478-.04291.16943L153,42.92463l-.02093.08472-.05176.16949-.03082.08472-.02533.08472-.065.17358-.13323.34308-.03412.08472-.11567.25421-.16839.34308-.08594.16943-.09466.17358-.19819.34308-.10241.16944-.10791.16943-.22791.34308-.49878.68609-.06494.08167-.0639.08472-.13324.16943-.27527.33484-.58569.66955-1.29822,1.3443-.08588.08478-.62427.58588-.74432.6737-1.58661,1.3443-.18939.153-.19379.157-.39087.31519-.80047.62616-1.656,1.25134-3.49145,2.50568-7.97937,5.4331L123.474,67.48921l-7.51031,5.49817-6.59754,5.39593-5.38861,5.03314L98.971,88.87434l-3.95282,5.09729-3.28113,4.997-3.007,5.42065-2.40027,5.058L84.04613,114.929l-2.0556,5.38037-1.86633,5.02081-2.09534,5.44134-2.12829,5.08173-2.35743,4.98047L70.5758,146.242l-3.23932,5.04145L63.2163,156.7527l-4.46808,5.10241-4.99005,5.00428-6.06793,5.4331-6.21106,5.06519-7.16132,5.48993-7.2251,5.39276-6.6372,5.029L16.133,196.77131a134.57123,134.57123,0,0,0,76.67962,66.65863c30.80085-11.55249,47.84815-37.8031,63.14014-62.727,24.269-39.55523,42.34131-78.61731,64.1709-78.61731,16.24328,0,30.40692,21.62982,46.59064,48.99567A134.94468,134.94468,0,0,0,76.64184,14.77766Z"/><path class="cls-2" d="M76.64184,14.77766l1.86047.36468.44263.08478.43933.08472.87756.17358,1.75836.33893,3.49695.683,6.90808,1.35981L105.62908,20.592l.73993.16119.73108.157,1.45343.31927,2.85614.63343,5.47888,1.27508.33142.07752.327.08056.65838.15711,1.29377.31927,2.52917.63751,4.77417,1.271.55933.15393.55053.1571,1.08783.311,2.10749.62518,3.91864,1.24408.2323.08057.2279.07647.46027.15711.88965.311,1.71216.62207,3.127,1.2472.19818.08471.58026.25421.74872.33893,1.41486.67371.33581.16943.32593.16944.63312.33892,1.18255.6789.142.08063.13764.08471.27081.16944.52081.33892.12885.08478.12.08472.24555.16943.58026.42365.10791.08471.21911.16639.41291.33892.74432.67786.08148.07648.077.08056.15527.15809.28846.31414.06829.08057.06934.07751.13324.157.24444.31933.06055.07642.05615.08063.11121.157.20264.31519.0473.07647.04736.08057.09027.15808.163.31415.03961.08056.03857.07752.06824.157.03082.08063.03418.07648.06055.16223.02533.07642.02533.08062.05176.15705.022.07647.02533.08161.03857.1571.01758.07648.03418.16113.01758.07752.01324.08062.01209.07642.01324.08063.00879.07647.00879.08057.00775.07751.00879.08057.0044.07648.00879.16119.00439.07752v.08062l.00446.08472-.00446.08472v.08471l-.00439.08472-.0044.08887-.00439.08472-.00879.08477-.0044.08472-.01214.08472-.00879.08886-.05176.33893-.03412.17359-.022.08471-.01654.08478-.04291.16943L153,42.92463l-.02093.08472-.05176.16949-.03082.08472-.02533.08472-.065.17358-.13323.34308-.03412.08472-.11567.25421-.16839.34308-.08594.16943-.09466.17358-.19819.34308-.10241.16944-.10791.16943-.22791.34308-.49878.68609-.06494.08167-.0639.08472-.13324.16943-.27527.33484-.58569.66955-1.29822,1.3443-.08588.08478-.62427.58588-.74432.6737-1.58661,1.3443-.18939.153-.19379.157-.39087.31519-.80047.62616-1.656,1.25134-3.49145,2.50568-7.97937,5.4331L123.474,67.48921l-7.51031,5.49817-6.59754,5.39593-5.38861,5.03314L98.971,88.87434l-3.95282,5.09729-3.28113,4.997-3.007,5.42065-2.40027,5.058L84.04613,114.929l-2.0556,5.38037-1.86633,5.02081-2.09534,5.44134-2.12829,5.08173-2.35743,4.98047L70.5758,146.242l-3.23932,5.04145L63.2163,156.7527l-4.46808,5.10241-4.99005,5.00428-6.06793,5.4331-6.21106,5.06519-7.16132,5.48993-7.2251,5.39276-6.6372,5.029L16.133,196.77131a134.57123,134.57123,0,0,0,76.67962,66.65863c30.80085-11.55249,47.84815-37.8031,63.14014-62.727,24.269-39.55523,42.34131-78.61731,64.1709-78.61731,16.24328,0,30.40692,21.62982,46.59064,48.99567A134.94468,134.94468,0,0,0,76.64184,14.77766Z"/><g class="cls-3"><path class="cls-4" d="M220.12365,122.08564c-21.82959,0-39.90192,39.06208-64.1709,78.61731-15.292,24.92389-32.33929,51.1745-63.14014,62.727q3.25791,1.11118,6.60535,2.06848A134.95194,134.95194,0,0,0,266.246,172.80287c.16382-.57349.31238-1.14771.46827-1.72156C250.53057,143.71546,236.36693,122.08564,220.12365,122.08564Z"/></g><path class="cls-5" d="M220.12365,122.08564c-21.82959,0-39.90192,39.06208-64.1709,78.61731-15.292,24.92389-32.33929,51.1745-63.14014,62.727q3.25791,1.11118,6.60535,2.06848A134.95194,134.95194,0,0,0,266.246,172.80287c.16382-.57349.31238-1.14771.46827-1.72156C250.53057,143.71546,236.36693,122.08564,220.12365,122.08564Z"/><g class="cls-6"><path class="cls-4" d="M27.09276,188.24037l7.2251-5.39276,7.16132-5.48993,6.21106-5.06519,6.06793-5.4331,4.99005-5.00428,4.46808-5.10241,4.12018-5.46924L70.5758,146.242l2.96734-5.40832,2.35743-4.98047,2.12829-5.08173,2.09534-5.44134,1.86633-5.02081,2.0556-5.38037,2.28363-5.48169,2.40027-5.058,3.007-5.42065,3.28113-4.997L98.971,88.87434l5.00653-5.45789,5.38861-5.03314,6.59754-5.39593,7.51031-5.49817,7.40131-5.07349,7.97937-5.4331,3.49145-2.50568,1.656-1.25134.80047-.62616.39087-.31519.19379-.157.18939-.153,1.58661-1.3443.74432-.6737.62427-.58588.08588-.08478,1.29822-1.3443.58569-.66955.27527-.33484.13324-.16943.0639-.08472.06494-.08167.49878-.68609.22791-.34308.10791-.16943.10241-.16944.19819-.34308.09466-.17358.08594-.16943.16839-.34308.11567-.25421.03412-.08472.13323-.34308.065-.17358.02533-.08472.03082-.08472.05176-.16949L153,42.92463l.02643-.08887.04291-.16943.01654-.08478.022-.08471.03412-.17359.05176-.33893.00879-.08886.01214-.08472.0044-.08472.00879-.08477.00439-.08472.0044-.08887.00439-.08472v-.08471l.00446-.08472-.00446-.08472v-.08062l-.00439-.07752-.00879-.16119-.0044-.07648-.00879-.08057-.00775-.07751-.00879-.08057-.00879-.07647-.01324-.08063-.01209-.07642-.01324-.08062-.01758-.07752-.03418-.16113-.01758-.07648-.03857-.1571-.02533-.08161-.022-.07647-.05176-.15705-.02533-.08062-.02533-.07642-.06055-.16223-.03418-.07648-.03082-.08063-.06824-.157-.03857-.07752-.03961-.08056-.163-.31415-.09027-.15808-.04736-.08057-.0473-.07647-.20264-.31519-.11121-.157-.05615-.08063-.06055-.07642-.24444-.31933-.13324-.157-.06934-.07751-.06829-.08057-.28846-.31414-.15527-.15809-.077-.08056-.08148-.07648-.74432-.67786-.41291-.33892-.21911-.16639-.10791-.08471-.58026-.42365-.24555-.16943-.12-.08472-.12885-.08478-.52081-.33892-.27081-.16944-.13764-.08471-.142-.08063-1.18255-.6789-.63312-.33892-.32593-.16944-.33581-.16943-1.41486-.67371-.74872-.33893-.58026-.25421-.19818-.08471-3.127-1.2472-1.71216-.62207-.88965-.311-.46027-.15711-.2279-.07647-.2323-.08057-3.91864-1.24408-2.10749-.62518-1.08783-.311-.55053-.1571-.55933-.15393-4.77417-1.271-2.52917-.63751-1.29377-.31927-.65838-.15711-.327-.08056-.33142-.07752-5.47888-1.27508-2.85614-.63343-1.45343-.31927-.73108-.157-.73993-.16119L92.42522,17.86714l-6.90808-1.35981-3.49695-.683-1.75836-.33893-.87756-.17358-.43933-.08472-.44263-.08478-1.86047-.36468A134.93726,134.93726,0,0,0,16.133,196.77131l4.32257-3.50189Z"/></g><path class="cls-7" d="M27.09276,188.24037l7.2251-5.39276,7.16132-5.48993,6.21106-5.06519,6.06793-5.4331,4.99005-5.00428,4.46808-5.10241,4.12018-5.46924L70.5758,146.242l2.96734-5.40832,2.35743-4.98047,2.12829-5.08173,2.09534-5.44134,1.86633-5.02081,2.0556-5.38037,2.28363-5.48169,2.40027-5.058,3.007-5.42065,3.28113-4.997L98.971,88.87434l5.00653-5.45789,5.38861-5.03314,6.59754-5.39593,7.51031-5.49817,7.40131-5.07349,7.97937-5.4331,3.49145-2.50568,1.656-1.25134.80047-.62616.39087-.31519.19379-.157.18939-.153,1.58661-1.3443.74432-.6737.62427-.58588.08588-.08478,1.29822-1.3443.58569-.66955.27527-.33484.13324-.16943.0639-.08472.06494-.08167.49878-.68609.22791-.34308.10791-.16943.10241-.16944.19819-.34308.09466-.17358.08594-.16943.16839-.34308.11567-.25421.03412-.08472.13323-.34308.065-.17358.02533-.08472.03082-.08472.05176-.16949L153,42.92463l.02643-.08887.04291-.16943.01654-.08478.022-.08471.03412-.17359.05176-.33893.00879-.08886.01214-.08472.0044-.08472.00879-.08477.00439-.08472.0044-.08887.00439-.08472v-.08471l.00446-.08472-.00446-.08472v-.08062l-.00439-.07752-.00879-.16119-.0044-.07648-.00879-.08057-.00775-.07751-.00879-.08057-.00879-.07647-.01324-.08063-.01209-.07642-.01324-.08062-.01758-.07752-.03418-.16113-.01758-.07648-.03857-.1571-.02533-.08161-.022-.07647-.05176-.15705-.02533-.08062-.02533-.07642-.06055-.16223-.03418-.07648-.03082-.08063-.06824-.157-.03857-.07752-.03961-.08056-.163-.31415-.09027-.15808-.04736-.08057-.0473-.07647-.20264-.31519-.11121-.157-.05615-.08063-.06055-.07642-.24444-.31933-.13324-.157-.06934-.07751-.06829-.08057-.28846-.31414-.15527-.15809-.077-.08056-.08148-.07648-.74432-.67786-.41291-.33892-.21911-.16639-.10791-.08471-.58026-.42365-.24555-.16943-.12-.08472-.12885-.08478-.52081-.33892-.27081-.16944-.13764-.08471-.142-.08063-1.18255-.6789-.63312-.33892-.32593-.16944-.33581-.16943-1.41486-.67371-.74872-.33893-.58026-.25421-.19818-.08471-3.127-1.2472-1.71216-.62207-.88965-.311-.46027-.15711-.2279-.07647-.2323-.08057-3.91864-1.24408-2.10749-.62518-1.08783-.311-.55053-.1571-.55933-.15393-4.77417-1.271-2.52917-.63751-1.29377-.31927-.65838-.15711-.327-.08056-.33142-.07752-5.47888-1.27508-2.85614-.63343-1.45343-.31927-.73108-.157-.73993-.16119L92.42522,17.86714l-6.90808-1.35981-3.49695-.683-1.75836-.33893-.87756-.17358-.43933-.08472-.44263-.08478-1.86047-.36468A134.93726,134.93726,0,0,0,16.133,196.77131l4.32257-3.50189Z"/><path class="cls-8" d="M229.262,37.708c-48.11322,36.77759-67.72564,64.16943-101.46807,109.92535-17.235,23.37128-34.69031,50.81439-63.19617,76.775q-8.2479,7.51153-15.95349,13.812"/></g><g id="Layer_2" data-name="Layer 2"><path class="cls-9" d="M36.575,323.47187c0-10.3125,5.5625-17,15.125-17,10.1875,0,14.875,7.5,14.875,16.4375v2.625H44.88746v.8125c0,4.6875,2.6875,7.875,7.9375,7.875,3.9375,0,6.3125-1.875,8.3125-4.4375l4.3125,4.8125c-2.6875,3.6875-7.4375,6-13.5,6C42.325,340.59687,36.575,333.90937,36.575,323.47187Zm8.3125-3.375v.5h13.375v-.5625c0-4.5-2.3125-7.5625-6.4375-7.5625C47.63746,312.47187,44.88746,315.59687,44.88746,320.09687Z"/><path class="cls-9" d="M71.45,323.47187c0-10.4375,5.4375-17,15.0625-17,6.5625,0,10.875,3.125,12.8125,8.25l-6.5625,2.9375a6.09051,6.09051,0,0,0-6.25-4.75c-4.4375,0-6.6875,3.125-6.6875,7.6875v5.9375c0,4.5625,2.25,7.625,6.6875,7.625,3.8125,0,5.6875-2.1875,6.875-5.125l6.125,2.9375c-2.125,5.75-6.6875,8.625-13,8.625C76.88746,340.59687,71.45,333.97187,71.45,323.47187Z"/><path class="cls-9" d="M103.2,323.47187c0-10.4375,5.8125-17,15.125-17,9.375,0,15.1875,6.5625,15.1875,17,0,10.5-5.8125,17.125-15.1875,17.125C109.01246,340.59687,103.2,333.97187,103.2,323.47187Zm21.9375,3.0625v-6.0625c0-4.875-2.625-7.5625-6.8125-7.5625-4.125,0-6.75,2.6875-6.75,7.5625v6.0625c0,4.9375,2.625,7.625,6.75,7.625C122.51246,334.15937,125.13746,331.47187,125.13746,326.53437Z"/><path class="cls-9" d="M140.574,339.84687v-32.625h8v5.4375h.3125c1.3125-3.5,4.0625-6.1875,9.125-6.1875,6.6875,0,10.4375,4.625,10.4375,12.75v20.625h-8v-19.8125c0-4.625-1.5625-7-5.375-7-3.3125,0-6.5,1.75-6.5,5.25v21.5625Z"/><path class="cls-9" d="M174.51148,334.59687l4.875-4.75a11.46462,11.46462,0,0,0,8.9375,4.4375c3.8125,0,5.4375-1.4375,5.4375-3.75,0-1.875-1.125-3.0625-4-3.4375l-3.25-.4375c-7-.875-10.875-3.9375-10.875-9.875,0-6.3125,4.9375-10.3125,12.375-10.3125,6.375,0,9.625,1.875,12.75,5.125l-4.6875,4.6875a10.77536,10.77536,0,0,0-7.8125-3.5c-3.4375,0-4.9375,1.375-4.9375,3.375,0,2.1875,1.1875,3.1875,4.25,3.6875l3.3125.4375c7.125,1,10.5625,4.1875,10.5625,9.625,0,6.3125-5.3125,10.6875-13.4375,10.6875C181.824,340.59687,177.76148,338.34687,174.51148,334.59687Z"/><path class="cls-9" d="M206.199,330.97187c0-6.6875,5.0625-10,13.9375-10h5.5625v-2.375c0-3.625-1.8125-5.75-6.0625-5.75a8.49262,8.49262,0,0,0-7.4375,4.125l-4.75-4.25c2.375-3.75,6.1875-6.25,12.75-6.25,8.8125,0,13.5,4.1875,13.5,11.625v15.375h3.25v6.375h-4.4375c-3.4375,0-5.5625-2.25-6.0625-5.625h-.375c-1.0625,4.1875-4.625,6.375-9.5,6.375C209.949,340.59687,206.199,336.78437,206.199,330.97187Zm19.5-.875v-4.3125h-5.125c-4.1875,0-6.25,1.4375-6.25,4v1.0625c0,2.625,1.8125,3.9375,4.9375,3.9375C222.824,334.78437,225.699,333.15937,225.699,330.09687Z"/><rect class="cls-10" width="272.21102" height="344.37543"/></g></svg>