<svg xmlns="http://www.w3.org/2000/svg" viewBox="0 0 528.66142 274.93228"><defs><style>.cls-1{fill:#187fb9;}.cls-11,.cls-2,.cls-5,.cls-7,.cls-8{fill:none;}.cls-2,.cls-5,.cls-7,.cls-8{stroke:#fff;}.cls-2,.cls-8{stroke-miterlimit:10;}.cls-2{stroke-width:1.5px;}.cls-3{opacity:0.99;}.cls-4{fill:#004385;}.cls-5,.cls-7,.cls-8{stroke-width:3px;}.cls-6{opacity:0.95;}.cls-7{stroke-linecap:square;stroke-miterlimit:3.25;}.cls-9{fill:#fff;}.cls-10{fill:#004c8d;}</style></defs><g id="Negative_Circle" data-name="Negative Circle"><path class="cls-1" d="M78.79925,16.85318l1.86048.36468.44262.08478.43933.08472.87757.17358,1.75836.33893,3.49695.683,6.90808,1.3598,13.20386,2.72485.73992.16119.73108.157,1.45343.31927,2.85614.63343,5.47889,1.27508.33142.07752.327.08056.65839.15711,1.29376.31927,2.52918.63751,4.77417,1.271.55932.15393.55054.15711,1.08783.311,2.10748.62518,3.91864,1.24408.2323.08057.22791.07648.46026.1571.88965.311,1.71216.62207,3.127,1.2472.19818.08471.58027.25422.74871.33892,1.41486.67371.33582.16943.32592.16944.63312.33892,1.18256.6789.142.08063.13763.08471.27081.16944.52082.33892.12884.08478.12.08472.24554.16943.58026.42365.10791.08472.21912.16638.4129.33893.74433.67785.08148.07648.077.08056.15528.15809.28845.31414.0683.08057.06933.07752.13324.157.24445.31933.06055.07642.05615.08063.1112.157.20264.31519.0473.07647.04737.08057.09027.15808.163.31415.03961.08057.03858.07751.06823.157.03083.08063.03418.07648.06054.16223.02533.07642.02533.08062.05176.157.022.07647.02533.08161.03858.1571.01758.07648.03418.16113.01757.07752.01325.08062.01208.07642.01325.08063.00879.07647.00879.08057.00775.07752.00879.08056.00439.07648.00879.16119.00439.07752v.08063l.00446.08471-.00446.08472v.08472l-.00439.08471-.00439.08887-.0044.08472-.00879.08477-.00439.08472L155.36,43.971l-.00879.08886-.05176.33893-.03411.17359-.022.08471-.01654.08478-.04291.16944-.02642.08886-.02094.08472-.05176.16949-.03082.08472-.02533.08472-.06494.17358-.13324.34308-.03412.08472-.11566.25421-.1684.34308-.08593.16943-.09467.17358-.19818.34308-.10242.16944-.10791.16943-.2279.34308-.49878.6861-.06494.08166-.06391.08472-.13324.16943-.27527.33484-.58569.66956-1.29822,1.34429-.08587.08478-.62427.58588-.74433.6737-1.5866,1.3443-.1894.153-.19378.157L146.96,54.675l-.80048.62616-1.656,1.25134-3.49146,2.50568-7.97937,5.4331-7.40131,5.07349-7.51031,5.49817-6.59753,5.39593L106.13494,85.492l-5.00653,5.45789-3.95282,5.09729-3.28112,4.997-3.007,5.42065-2.40027,5.058-2.28363,5.48169-2.0556,5.38037-1.86634,5.02081L80.18628,132.847l-2.1283,5.08172-2.35742,4.98047-2.96735,5.40833L69.49389,153.359l-4.12018,5.46924-4.46807,5.10241-4.99006,5.00428-6.06793,5.4331-6.21106,5.06519-7.16131,5.48993-7.2251,5.39276L22.613,195.34494l-4.32257,3.50189A134.57125,134.57125,0,0,0,94.97,265.50546c30.80084-11.55249,47.84814-37.8031,63.14013-62.727,24.269-39.55523,42.34131-78.61731,64.1709-78.61731,16.24329,0,30.40692,21.62983,46.59064,48.99567A134.94468,134.94468,0,0,0,78.79925,16.85318Z" transform="translate(0)"/><path class="cls-2" d="M78.79925,16.85318l1.86048.36468.44262.08478.43933.08472.87757.17358,1.75836.33893,3.49695.683,6.90808,1.3598,13.20386,2.72485.73992.16119.73108.157,1.45343.31927,2.85614.63343,5.47889,1.27508.33142.07752.327.08056.65839.15711,1.29376.31927,2.52918.63751,4.77417,1.271.55932.15393.55054.15711,1.08783.311,2.10748.62518,3.91864,1.24408.2323.08057.22791.07648.46026.1571.88965.311,1.71216.62207,3.127,1.2472.19818.08471.58027.25422.74871.33892,1.41486.67371.33582.16943.32592.16944.63312.33892,1.18256.6789.142.08063.13763.08471.27081.16944.52082.33892.12884.08478.12.08472.24554.16943.58026.42365.10791.08472.21912.16638.4129.33893.74433.67785.08148.07648.077.08056.15528.15809.28845.31414.0683.08057.06933.07752.13324.157.24445.31933.06055.07642.05615.08063.1112.157.20264.31519.0473.07647.04737.08057.09027.15808.163.31415.03961.08057.03858.07751.06823.157.03083.08063.03418.07648.06054.16223.02533.07642.02533.08062.05176.157.022.07647.02533.08161.03858.1571.01758.07648.03418.16113.01757.07752.01325.08062.01208.07642.01325.08063.00879.07647.00879.08057.00775.07752.00879.08056.00439.07648.00879.16119.00439.07752v.08063l.00446.08471-.00446.08472v.08472l-.00439.08471-.00439.08887-.0044.08472-.00879.08477-.00439.08472L155.36,43.971l-.00879.08886-.05176.33893-.03411.17359-.022.08471-.01654.08478-.04291.16944-.02642.08886-.02094.08472-.05176.16949-.03082.08472-.02533.08472-.06494.17358-.13324.34308-.03412.08472-.11566.25421-.1684.34308-.08593.16943-.09467.17358-.19818.34308-.10242.16944-.10791.16943-.2279.34308-.49878.6861-.06494.08166-.06391.08472-.13324.16943-.27527.33484-.58569.66956-1.29822,1.34429-.08587.08478-.62427.58588-.74433.6737-1.5866,1.3443-.1894.153-.19378.157L146.96,54.675l-.80048.62616-1.656,1.25134-3.49146,2.50568-7.97937,5.4331-7.40131,5.07349-7.51031,5.49817-6.59753,5.39593L106.13494,85.492l-5.00653,5.45789-3.95282,5.09729-3.28112,4.997-3.007,5.42065-2.40027,5.058-2.28363,5.48169-2.0556,5.38037-1.86634,5.02081L80.18628,132.847l-2.1283,5.08172-2.35742,4.98047-2.96735,5.40833L69.49389,153.359l-4.12018,5.46924-4.46807,5.10241-4.99006,5.00428-6.06793,5.4331-6.21106,5.06519-7.16131,5.48993-7.2251,5.39276L22.613,195.34494l-4.32257,3.50189A134.57125,134.57125,0,0,0,94.97,265.50546c30.80084-11.55249,47.84814-37.8031,63.14013-62.727,24.269-39.55523,42.34131-78.61731,64.1709-78.61731,16.24329,0,30.40692,21.62983,46.59064,48.99567A134.94468,134.94468,0,0,0,78.79925,16.85318Z" transform="translate(0)"/><g class="cls-3"><path class="cls-4" d="M222.28106,124.16116c-21.82959,0-39.90191,39.06208-64.1709,78.61731-15.292,24.92389-32.33929,51.1745-63.14013,62.727q3.2579,1.11118,6.60534,2.06848a134.952,134.952,0,0,0,166.82807-92.69555c.16382-.57349.31238-1.14771.46826-1.72156C252.688,145.791,238.52435,124.16116,222.28106,124.16116Z" transform="translate(0)"/></g><path class="cls-5" d="M222.28106,124.16116c-21.82959,0-39.90191,39.06208-64.1709,78.61731-15.292,24.92389-32.33929,51.1745-63.14013,62.727q3.2579,1.11118,6.60534,2.06848a134.952,134.952,0,0,0,166.82807-92.69555c.16382-.57349.31238-1.14771.46826-1.72156C252.688,145.791,238.52435,124.16116,222.28106,124.16116Z" transform="translate(0)"/><g class="cls-6"><path class="cls-4" d="M29.25018,190.31589l7.2251-5.39276,7.16131-5.48993,6.21106-5.06519,6.06793-5.4331,4.99006-5.00428,4.46807-5.10241,4.12018-5.46924,3.23932-5.04144,2.96735-5.40833,2.35742-4.98047,2.1283-5.08172,2.09533-5.44135,1.86634-5.02081,2.0556-5.38037,2.28363-5.48169,2.40027-5.058,3.007-5.42065,3.28112-4.997,3.95282-5.09729,5.00653-5.45789,5.38862-5.03314,6.59753-5.39593,7.51031-5.49817,7.40131-5.07349,7.97937-5.4331,3.49146-2.50568,1.656-1.25134L146.96,54.675l.39087-.31519.19378-.157.1894-.153,1.5866-1.3443.74433-.6737.62427-.58588.08587-.08478,1.29822-1.34429.58569-.66956.27527-.33484.13324-.16943.06391-.08472.06494-.08166.49878-.6861.2279-.34308.10791-.16943.10242-.16944.19818-.34308.09467-.17358.08593-.16943.1684-.34308.11566-.25421.03412-.08472.13324-.34308.06494-.17358.02533-.08472.03082-.08472.05176-.16949.02094-.08472.02642-.08886.04291-.16944.01654-.08478.022-.08471.03411-.17359.05176-.33893L155.36,43.971l.01215-.08472.00439-.08472.00879-.08477.0044-.08472.00439-.08887.00439-.08471v-.08472l.00446-.08472-.00446-.08471v-.08063l-.00439-.07752-.00879-.16119-.00439-.07648-.00879-.08056-.00775-.07752-.00879-.08057-.00879-.07647-.01325-.08063-.01208-.07642-.01325-.08062-.01757-.07752-.03418-.16113-.01758-.07648-.03858-.1571-.02533-.08161-.022-.07647-.05176-.157-.02533-.08062-.02533-.07642-.06054-.16223-.03418-.07648L154.925,40.992l-.06823-.157-.03858-.07751-.03961-.08057-.163-.31415-.09027-.15808L154.478,40.124l-.0473-.07647-.20264-.31519-.1112-.157-.05615-.08063-.06055-.07642-.24445-.31933-.13324-.157-.06933-.07752-.0683-.08057-.28845-.31414-.15528-.15809-.077-.08056-.08148-.07648-.74433-.67785-.4129-.33893-.21912-.16638-.10791-.08472-.58026-.42365-.24554-.16943-.12-.08472-.12884-.08478-.52082-.33892-.27081-.16944-.13763-.08471-.142-.08063-1.18256-.6789-.63312-.33892-.32592-.16944-.33582-.16943L145.36016,33.42l-.74871-.33892-.58027-.25422-.19818-.08471-3.127-1.2472-1.71216-.62207-.88965-.311-.46026-.1571-.22791-.07648-.2323-.08057-3.91864-1.24408-2.10748-.62518-1.08783-.311-.55054-.15711-.55932-.15393-4.77417-1.271-2.52918-.63751-1.29376-.31927-.65839-.15711-.327-.08056-.33142-.07752-5.47889-1.27508-2.85614-.63343-1.45343-.31927-.73108-.157-.73992-.16119L94.58264,19.94266l-6.90808-1.3598-3.49695-.683-1.75836-.33893-.87757-.17358-.43933-.08472-.44262-.08478-1.86048-.36468A134.93729,134.93729,0,0,0,18.2904,198.84683l4.32257-3.50189Z" transform="translate(0)"/></g><path class="cls-7" d="M29.25018,190.31589l7.2251-5.39276,7.16131-5.48993,6.21106-5.06519,6.06793-5.4331,4.99006-5.00428,4.46807-5.10241,4.12018-5.46924,3.23932-5.04144,2.96735-5.40833,2.35742-4.98047,2.1283-5.08172,2.09533-5.44135,1.86634-5.02081,2.0556-5.38037,2.28363-5.48169,2.40027-5.058,3.007-5.42065,3.28112-4.997,3.95282-5.09729,5.00653-5.45789,5.38862-5.03314,6.59753-5.39593,7.51031-5.49817,7.40131-5.07349,7.97937-5.4331,3.49146-2.50568,1.656-1.25134L146.96,54.675l.39087-.31519.19378-.157.1894-.153,1.5866-1.3443.74433-.6737.62427-.58588.08587-.08478,1.29822-1.34429.58569-.66956.27527-.33484.13324-.16943.06391-.08472.06494-.08166.49878-.6861.2279-.34308.10791-.16943.10242-.16944.19818-.34308.09467-.17358.08593-.16943.1684-.34308.11566-.25421.03412-.08472.13324-.34308.06494-.17358.02533-.08472.03082-.08472.05176-.16949.02094-.08472.02642-.08886.04291-.16944.01654-.08478.022-.08471.03411-.17359.05176-.33893L155.36,43.971l.01215-.08472.00439-.08472.00879-.08477.0044-.08472.00439-.08887.00439-.08471v-.08472l.00446-.08472-.00446-.08471v-.08063l-.00439-.07752-.00879-.16119-.00439-.07648-.00879-.08056-.00775-.07752-.00879-.08057-.00879-.07647-.01325-.08063-.01208-.07642-.01325-.08062-.01757-.07752-.03418-.16113-.01758-.07648-.03858-.1571-.02533-.08161-.022-.07647-.05176-.157-.02533-.08062-.02533-.07642-.06054-.16223-.03418-.07648L154.925,40.992l-.06823-.157-.03858-.07751-.03961-.08057-.163-.31415-.09027-.15808L154.478,40.124l-.0473-.07647-.20264-.31519-.1112-.157-.05615-.08063-.06055-.07642-.24445-.31933-.13324-.157-.06933-.07752-.0683-.08057-.28845-.31414-.15528-.15809-.077-.08056-.08148-.07648-.74433-.67785-.4129-.33893-.21912-.16638-.10791-.08472-.58026-.42365-.24554-.16943-.12-.08472-.12884-.08478-.52082-.33892-.27081-.16944-.13763-.08471-.142-.08063-1.18256-.6789-.63312-.33892-.32592-.16944-.33582-.16943L145.36016,33.42l-.74871-.33892-.58027-.25422-.19818-.08471-3.127-1.2472-1.71216-.62207-.88965-.311-.46026-.1571-.22791-.07648-.2323-.08057-3.91864-1.24408-2.10748-.62518-1.08783-.311-.55054-.15711-.55932-.15393-4.77417-1.271-2.52918-.63751-1.29376-.31927-.65839-.15711-.327-.08056-.33142-.07752-5.47889-1.27508-2.85614-.63343-1.45343-.31927-.73108-.157-.73992-.16119L94.58264,19.94266l-6.90808-1.3598-3.49695-.683-1.75836-.33893-.87757-.17358-.43933-.08472-.44262-.08478-1.86048-.36468A134.93729,134.93729,0,0,0,18.2904,198.84683l4.32257-3.50189Z" transform="translate(0)"/><path class="cls-8" d="M231.41937,39.78354C183.30615,76.56113,163.69372,103.953,129.95129,149.70889c-17.235,23.37128-34.69031,50.81439-63.19617,76.775q-8.24789,7.51153-15.95349,13.812" transform="translate(0)"/></g><g id="Layer_2" data-name="Layer 2"><path class="cls-9" d="M137.583,2.5A134.965,134.965,0,1,1,30.13884,55.66692,134.35,134.35,0,0,1,137.583,2.5m.006-2.5V2.5L137.58644,0A138.75488,138.75488,0,0,0,77.477,13.76546,137.55328,137.55328,0,0,0,1.261,155.86383,137.47472,137.47472,0,0,0,137.38341,274.93222a138.734,138.734,0,0,0,60.106-13.7648,137.55529,137.55529,0,0,0,76.216-142.09906A137.47481,137.47481,0,0,0,137.589,0Z" transform="translate(0)"/><path class="cls-10" d="M324.62541,141.03185c0-10.3125,5.5625-17,15.125-17,10.1875,0,14.875,7.5,14.875,16.4375v2.625h-21.6875v.8125c0,4.6875,2.6875,7.875,7.9375,7.875,3.9375,0,6.3125-1.875,8.3125-4.4375l4.3125,4.8125c-2.6875,3.6875-7.4375,6-13.5,6C330.37541,158.15685,324.62541,151.46935,324.62541,141.03185Zm8.3125-3.375v.5h13.375v-.5625c0-4.5-2.3125-7.5625-6.4375-7.5625C335.68791,130.03185,332.93791,133.15685,332.93791,137.65685Z" transform="translate(0)"/><path class="cls-10" d="M359.50041,141.03185c0-10.4375,5.4375-17,15.0625-17,6.5625,0,10.875,3.125,12.8125,8.25l-6.5625,2.9375a6.09051,6.09051,0,0,0-6.25-4.75c-4.4375,0-6.6875,3.125-6.6875,7.6875v5.9375c0,4.5625,2.25,7.625,6.6875,7.625,3.8125,0,5.6875-2.1875,6.875-5.125l6.125,2.9375c-2.125,5.75-6.6875,8.625-13,8.625C364.93791,158.15685,359.50041,151.53185,359.50041,141.03185Z" transform="translate(0)"/><path class="cls-10" d="M391.25041,141.03185c0-10.4375,5.8125-17,15.125-17,9.375,0,15.1875,6.5625,15.1875,17,0,10.5-5.8125,17.125-15.1875,17.125C397.06291,158.15685,391.25041,151.53185,391.25041,141.03185Zm21.9375,3.0625v-6.0625c0-4.875-2.625-7.5625-6.8125-7.5625-4.125,0-6.75,2.6875-6.75,7.5625v6.0625c0,4.9375,2.625,7.625,6.75,7.625C410.56291,151.71935,413.18791,149.03185,413.18791,144.09435Z" transform="translate(0)"/><path class="cls-10" d="M428.62443,157.40685v-32.625h8v5.4375h.3125c1.3125-3.5,4.0625-6.1875,9.125-6.1875,6.6875,0,10.4375,4.625,10.4375,12.75v20.625h-8v-19.8125c0-4.625-1.5625-7-5.375-7-3.3125,0-6.5,1.75-6.5,5.25v21.5625Z" transform="translate(0)"/><path class="cls-10" d="M462.56193,152.15685l4.875-4.75a11.46462,11.46462,0,0,0,8.9375,4.4375c3.8125,0,5.4375-1.4375,5.4375-3.75,0-1.875-1.125-3.0625-4-3.4375l-3.25-.4375c-7-.875-10.875-3.9375-10.875-9.875,0-6.3125,4.9375-10.3125,12.375-10.3125,6.375,0,9.625,1.875,12.75,5.125l-4.6875,4.6875a10.77536,10.77536,0,0,0-7.8125-3.5c-3.4375,0-4.9375,1.375-4.9375,3.375,0,2.1875,1.1875,3.1875,4.25,3.6875l3.3125.4375c7.125,1,10.5625,4.1875,10.5625,9.625,0,6.3125-5.3125,10.6875-13.4375,10.6875C469.87443,158.15685,465.81193,155.90685,462.56193,152.15685Z" transform="translate(0)"/><path class="cls-10" d="M494.24943,148.53185c0-6.6875,5.0625-10,13.9375-10h5.5625v-2.375c0-3.625-1.8125-5.75-6.0625-5.75a8.49262,8.49262,0,0,0-7.4375,4.125l-4.75-4.25c2.375-3.75,6.1875-6.25,12.75-6.25,8.8125,0,13.5,4.1875,13.5,11.625v15.375h3.25v6.375h-4.4375c-3.4375,0-5.5625-2.25-6.0625-5.625h-.375c-1.0625,4.1875-4.625,6.375-9.5,6.375C497.99943,158.15685,494.24943,154.34435,494.24943,148.53185Zm19.5-.875v-4.3125h-5.125c-4.1875,0-6.25,1.4375-6.25,4v1.0625c0,2.625,1.8125,3.9375,4.9375,3.9375C510.87443,152.34435,513.74943,150.71935,513.74943,147.65685Z" transform="translate(0)"/><rect class="cls-11" width="528.66142" height="274.93228"/></g></svg>